<svg width="103" height="98" viewBox="0 0 103 98" fill="none" xmlns="http://www.w3.org/2000/svg">
<g id="&#236;&#160;&#132;&#235;&#130;&#168;&#235;&#140;&#128; &#235;&#161;&#156;&#234;&#179;&#160;">
<path id="Vector" d="M7.0901 78.2886C7.50831 78.2888 7.9096 78.1235 8.20633 77.8288C8.50307 77.5341 8.67113 77.134 8.6738 76.7158C8.67542 76.5081 8.63594 76.3022 8.55764 76.1099C8.47934 75.9175 8.36378 75.7426 8.21758 75.5951C8.07139 75.4477 7.89746 75.3306 7.70582 75.2506C7.51418 75.1706 7.30861 75.1294 7.10095 75.1292C6.2343 75.1292 5.5252 75.8347 5.52014 76.7049C5.52014 77.5745 6.22272 78.2828 7.0901 78.2886ZM3.61697 76.6984C3.61941 76.0099 3.82598 75.3375 4.21057 74.7664C4.59516 74.1953 5.1405 73.751 5.77759 73.4898C6.41469 73.2286 7.11493 73.1623 7.78976 73.2991C8.46458 73.4359 9.08366 73.7698 9.56872 74.2585C10.0538 74.7472 10.383 75.3687 10.5148 76.0446C10.6466 76.7204 10.5749 77.4201 10.309 78.0552C10.0431 78.6903 9.59476 79.2323 9.02076 79.6127C8.44677 79.993 7.77287 80.1945 7.08432 80.1918C6.62728 80.1903 6.17501 80.0987 5.75337 79.9224C5.33173 79.746 4.94897 79.4883 4.62697 79.1639C4.30497 78.8396 4.05003 78.4549 3.87673 78.032C3.70343 77.6091 3.61516 77.1562 3.61697 76.6991M24.364 76.8625C24.571 76.8635 24.7761 76.8236 24.9677 76.7452C25.1592 76.6667 25.3334 76.5513 25.4803 76.4055C25.6272 76.2597 25.7439 76.0863 25.8237 75.8954C25.9036 75.7044 25.9449 75.4995 25.9455 75.2926C25.947 74.8742 25.7827 74.4722 25.4884 74.1748C25.1941 73.8774 24.7939 73.7088 24.3756 73.706C23.5082 73.706 22.7911 74.4122 22.7911 75.2846C22.7906 75.7024 22.9559 76.1033 23.2509 76.3992C23.5458 76.6951 23.9462 76.8617 24.364 76.8625ZM20.888 75.273C20.8914 74.3505 21.261 73.467 21.9155 72.8169C22.57 72.1667 23.4559 71.803 24.3784 71.8057C24.8359 71.8067 25.2886 71.8979 25.7107 72.0741C26.1329 72.2502 26.5161 72.5078 26.8386 72.8322C27.1611 73.1566 27.4165 73.5414 27.5902 73.9645C27.7639 74.3877 27.8525 74.8409 27.8509 75.2983C27.8496 75.7555 27.7583 76.2078 27.582 76.6296C27.4057 77.0514 27.148 77.4343 26.8236 77.7563C26.4992 78.0784 26.1145 78.3333 25.6914 78.5065C25.2684 78.6797 24.8153 78.7678 24.3582 78.7657C23.9009 78.7646 23.4483 78.6734 23.0264 78.4973C22.6044 78.3211 22.2213 78.0634 21.899 77.739C21.5768 77.4146 21.3216 77.0298 21.1483 76.6066C20.9749 76.1835 20.886 75.7303 20.888 75.273ZM31.6428 60.8846C32.5101 60.8846 33.2185 60.1813 33.2243 59.3118C33.2237 58.8936 33.0577 58.4926 32.7624 58.1964C32.4672 57.9002 32.0667 57.7329 31.6485 57.731C30.7812 57.731 30.0728 58.4307 30.0728 59.3031C30.0714 59.5102 30.1109 59.7156 30.1892 59.9073C30.2674 60.0991 30.3828 60.2735 30.5287 60.4205C30.6747 60.5675 30.8482 60.6842 31.0394 60.7638C31.2306 60.8435 31.4356 60.8845 31.6428 60.8846ZM28.1646 59.298C28.1661 58.8406 28.2577 58.388 28.4342 57.966C28.6107 57.544 28.8687 57.1609 29.1933 56.8387C29.5179 56.5164 29.9029 56.2612 30.3261 56.0878C30.7494 55.9143 31.2027 55.826 31.6601 55.8278C32.1168 55.8293 32.5687 55.9208 32.99 56.097C33.4112 56.2733 33.7937 56.5308 34.1154 56.8549C34.4372 57.1789 34.6919 57.5632 34.865 57.9858C35.0382 58.4084 35.1264 58.8609 35.1246 59.3176C35.1246 61.2374 33.5575 62.7907 31.6348 62.7871C31.1777 62.7862 30.7253 62.6953 30.3035 62.5194C29.8816 62.3435 29.4986 62.0862 29.1762 61.7621C28.8539 61.4381 28.5986 61.0536 28.4251 60.6308C28.2515 60.208 28.1629 59.7551 28.1646 59.298ZM49.5975 59.5518C49.8047 59.5535 50.0102 59.5141 50.2021 59.436C50.394 59.3578 50.5685 59.2424 50.7156 59.0965C50.8626 58.9505 50.9793 58.7768 51.0589 58.5855C51.1384 58.3942 51.1793 58.189 51.1791 57.9818C51.1803 57.67 51.0891 57.3647 50.9169 57.1047C50.7447 56.8447 50.4992 56.6417 50.2116 56.5212C49.9239 56.4007 49.607 56.3683 49.3009 56.428C48.9948 56.4877 48.7133 56.6368 48.492 56.8565C48.2707 57.0762 48.1195 57.3566 48.0575 57.6623C47.9956 57.9679 48.0257 58.285 48.1441 58.5736C48.2624 58.8621 48.4637 59.109 48.7224 59.2832C48.9811 59.4573 49.2857 59.5508 49.5975 59.5518ZM46.1244 57.9681C46.1252 57.5106 46.2161 57.0577 46.3919 56.6354C46.5678 56.2131 46.8252 55.8295 47.1493 55.5067C47.4735 55.1839 47.8581 54.9281 48.2811 54.754C48.7042 54.5799 49.1574 54.4909 49.6149 54.492C50.5267 54.5134 51.3938 54.8914 52.0301 55.5449C52.6663 56.1984 53.021 57.0753 53.018 57.9874C53.0149 58.8994 52.6545 59.774 52.0139 60.4232C51.3733 61.0725 50.5037 61.4447 49.5918 61.46C47.6749 61.452 46.1136 59.8879 46.1244 57.9681ZM56.7578 43.5739C57.6252 43.5797 58.3335 42.8728 58.3393 42.001C58.3399 41.794 58.2996 41.5888 58.2209 41.3973C58.1422 41.2058 58.0265 41.0316 57.8805 40.8848C57.5856 40.5883 57.185 40.421 56.7668 40.4199C56.3486 40.4187 55.9471 40.5837 55.6505 40.8786C55.354 41.1735 55.1868 41.5742 55.1856 41.9924C55.1845 42.1996 55.2243 42.405 55.3028 42.5968C55.3813 42.7886 55.4969 42.9629 55.643 43.1099C55.7891 43.2569 55.9628 43.3735 56.1541 43.4531C56.3454 43.5328 56.5506 43.5738 56.7578 43.5739ZM53.2853 41.9837C53.2804 41.5228 53.367 41.0654 53.5403 40.6383C53.7136 40.2111 53.97 39.8226 54.2948 39.4954C54.6195 39.1682 55.006 38.9088 55.4318 38.7323C55.8576 38.5558 56.3143 38.4656 56.7753 38.4671C57.2362 38.4686 57.6923 38.5617 58.117 38.7409C58.5417 38.9202 58.9265 39.1821 59.2491 39.5114C59.5717 39.8407 59.8256 40.2308 59.9962 40.659C60.1667 41.0873 60.2504 41.5452 60.2425 42.0061C60.2419 42.4634 60.1511 42.9162 59.9753 43.3384C59.7995 43.7606 59.5422 44.144 59.2181 44.4666C58.8939 44.7892 58.5093 45.0447 58.0863 45.2185C57.6632 45.3923 57.21 45.4809 56.7527 45.4792C56.2952 45.4786 55.8423 45.3875 55.4201 45.2113C54.9978 45.035 54.6146 44.7771 54.2924 44.4522C53.9702 44.1274 53.7154 43.7421 53.5425 43.3185C53.3697 42.8948 53.2823 42.4412 53.2853 41.9837ZM74.7747 42.0068C74.9821 42.0072 75.1876 41.9666 75.3793 41.8874C75.571 41.8082 75.7452 41.692 75.8918 41.5453C76.0385 41.3986 76.1548 41.2245 76.234 41.0328C76.3131 40.8411 76.3537 40.6356 76.3533 40.4282C76.3539 40.0104 76.1886 39.6095 75.8936 39.3136C75.5987 39.0177 75.1983 38.851 74.7805 38.8503C74.3617 38.8485 73.9593 39.0132 73.6618 39.308C73.3643 39.6028 73.196 40.0036 73.1939 40.4224C73.1935 40.8421 73.3598 41.2448 73.6563 41.5419C73.9527 41.839 74.355 42.0062 74.7747 42.0068ZM71.2965 40.4144C71.2965 38.4918 72.8636 36.9413 74.792 36.9442C75.7144 36.9494 76.5971 37.3198 77.2468 37.9745C77.8966 38.6291 78.2604 39.5145 78.2587 40.4369C78.2552 41.3607 77.8852 42.2454 77.23 42.8966C76.5747 43.5478 75.6877 43.9123 74.7639 43.91C74.3066 43.9082 73.8543 43.8164 73.4326 43.6397C73.0109 43.4631 72.6281 43.205 72.3061 42.8804C71.9841 42.5558 71.7293 42.171 71.556 41.7479C71.3828 41.3248 71.2946 40.8717 71.2965 40.4144ZM81.8843 26.7229C82.0913 26.7234 82.2963 26.6832 82.4877 26.6046C82.6791 26.5259 82.8531 26.4103 82.9998 26.2644C83.1465 26.1185 83.2631 25.9451 83.3428 25.7541C83.4225 25.5632 83.4638 25.3584 83.4644 25.1514C83.465 24.9445 83.4248 24.7395 83.3461 24.5481C83.2675 24.3567 83.1519 24.1827 83.006 24.036C82.86 23.8892 82.6867 23.7727 82.4957 23.693C82.3047 23.6133 82.0999 23.5719 81.893 23.5714C81.0256 23.5714 80.3115 24.2725 80.3115 25.1449C80.3115 26.0145 81.0126 26.7229 81.8843 26.7229ZM78.4061 25.1363C78.4107 24.2135 78.7809 23.3302 79.4356 22.6798C80.0903 22.0295 80.976 21.6652 81.8988 21.6668C82.8219 21.6698 83.706 22.0394 84.3566 22.6942C85.0073 23.3491 85.3712 24.2356 85.3683 25.1587C85.3683 27.0785 83.8012 28.6318 81.8786 28.626C80.9558 28.6222 80.0722 28.2528 79.4213 27.5986C78.7704 26.9445 78.4054 26.059 78.4061 25.1363Z" fill="#008A3D"/>
<path id="Vector_2" d="M50.3825 40.4253C45.8338 41.4416 42.0925 46.4963 42.0925 46.4963C38.0158 52.4053 38.9865 56.847 38.9865 56.847L50.3514 40.4991L50.3825 40.4253ZM51.6589 41.4561L40.2319 57.7621C40.2319 57.7621 44.73 57.1405 48.8776 51.2712C48.8776 51.2712 52.3304 46.0185 51.7182 41.4047L51.6589 41.4561ZM37.0161 60.7379C37.0161 60.7379 34.2716 42.554 52.9687 37.6078C52.9687 37.6078 57.594 55.1361 37.0161 60.7379Z" fill="#008A3D"/>
<path id="Vector_3" d="M74.1112 45.5017C70.0562 43.2205 63.8956 44.4774 63.8956 44.4774C56.9074 46.1399 54.6652 50.0901 54.6652 50.0901L74.0461 45.5385L74.1112 45.5017ZM74.3764 47.1229L54.976 51.6066C54.976 51.6066 58.7405 54.156 65.7453 52.5607C65.7453 52.5607 71.8271 50.9633 74.4502 47.1251L74.3764 47.1229ZM50.5914 51.6716C50.5914 51.6716 60.7166 36.3146 77.9233 45.1374C77.9233 45.1374 69.6449 61.2656 50.5914 51.6716ZM25.4034 57.739C20.8626 58.7531 17.1271 63.807 17.1271 63.807C13.036 69.7168 14.0103 74.1606 14.0103 74.1606L25.3745 57.8098L25.4034 57.739ZM26.6878 58.7668L15.255 75.0699C15.255 75.0699 19.7618 74.4541 23.9007 68.5812C23.9007 68.5812 27.3543 63.3263 26.7413 58.7191L26.6878 58.7668ZM12.0392 78.0545C12.0392 78.0545 9.30048 59.8684 27.9918 54.9214C27.9918 54.9214 32.62 72.4497 12.0392 78.0545Z" fill="#008A3D"/>
<path id="Vector_4" d="M48.8328 62.9685C44.7778 60.6844 38.6144 61.9407 38.6144 61.9407C31.6291 63.6068 29.384 67.557 29.384 67.557L48.762 63.0025L48.8328 62.9685ZM49.0952 64.592L29.7006 69.0669C29.7006 69.0669 33.4556 71.6192 40.4612 70.0268C40.4612 70.0268 46.5458 68.4258 49.174 64.5912L49.0952 64.592ZM25.3102 69.132C25.3102 69.132 35.4318 53.7808 52.6356 62.6013C52.6356 62.6013 44.3629 78.7288 25.3102 69.132ZM75.6587 22.962C71.1238 23.9754 67.3803 29.0265 67.3803 29.0265C63.2942 34.9391 64.2628 39.3779 64.2628 39.3779L75.6385 23.0329L75.6587 22.962ZM76.9461 23.9899L65.514 40.2952C65.514 40.2952 70.02 39.6801 74.1567 33.8072C74.1567 33.8072 77.6154 28.5494 77.0025 23.9415L76.9461 23.9899ZM62.2975 43.2768C62.2975 43.2768 59.5587 25.0878 78.25 20.1416C78.25 20.1416 82.8761 37.6728 62.2975 43.2768Z" fill="#008A3D"/>
<path id="Vector_5" d="M98.9327 28.8097C94.8813 26.5256 88.72 27.779 88.72 27.779C81.7289 29.4479 79.4788 33.3952 79.4788 33.3952L98.8647 28.8437L98.9327 28.8097ZM99.195 30.4302L79.8004 34.9117C79.8004 34.9117 83.5591 37.4611 90.5632 35.8629C90.5632 35.8629 96.6399 34.2677 99.2746 30.4302H99.195ZM75.4129 34.9732C75.4129 34.9732 85.5352 19.622 102.735 28.4367C102.735 28.4367 94.4606 44.5678 75.4129 34.9732ZM23.7539 80.4008C19.6801 78.1615 13.5304 79.4719 13.5304 79.4719C6.5559 81.1995 4.34263 85.1721 4.34263 85.1721L23.6867 80.4405L23.7539 80.4008ZM24.025 82.0242L4.67512 86.6864C4.67512 86.6864 8.45908 89.2018 15.4502 87.5415C15.4502 87.5415 21.5204 85.8862 24.1124 82.0213L24.025 82.0242ZM0.290527 86.7905C0.290527 86.7905 10.2661 71.3432 27.5602 79.9996C27.5602 79.9996 19.4286 96.2066 0.290527 86.7905ZM5.92922 71.3822C5.92922 71.3822 8.69039 71.3937 10.5285 72.9384C10.5285 72.9384 9.25273 65.7211 18.1976 57.4398C17.6519 55.3833 17.3096 53.2782 17.1755 51.1549H0.615782C0.905049 58.202 2.71779 65.1027 5.92922 71.3822Z" fill="#008A3D"/>
<path id="Vector_6" d="M28.1277 78.6053C29.1244 78.992 29.4287 79.6866 29.4287 79.6866C26.8034 85.681 20.6566 88.6337 20.6566 88.6337C28.8243 94.6039 38.6507 97.878 48.767 97.9999L48.8104 81.4619C41.7433 81.3182 34.9187 78.8594 29.3839 74.4629C30.4537 76.5381 28.1277 78.6053 28.1277 78.6053ZM48.8096 16.8717V0.323486H0.290527V16.8659H12.9767C5.79911 23.9958 1.17453 35.0353 0.623745 46.7052H17.1387C18.4882 30.066 32.4675 16.9252 48.8096 16.8717ZM53.3757 0.323486H102.736V16.8659H91.552V24.089C90.5075 23.8179 87.3705 24.7012 87.3705 24.7012C85.0748 17.5381 79.9927 20.5255 79.9927 20.5255C79.9219 19.9863 79.4592 18.5999 79.4592 18.5999C78.2333 18.2891 74.998 19.5121 74.998 19.5121L75.0038 16.9736V16.8659H53.3843L53.3757 0.323486ZM91.552 63.604V39.3303C87.3647 41.0781 79.7101 39.2197 79.7101 39.2197C80.6194 43.1475 78.5442 44.2939 78.5442 44.2939C79.0747 44.6047 79.7643 45.3724 79.7643 45.3724C78.68 48.9893 74.8997 51.5922 74.8997 51.5922L74.8737 59.4362C73.6001 80.4485 55.9142 81.4026 53.4125 81.4315V97.9999C53.4125 97.9999 70.9177 97.6096 83.1131 84.2353C83.1131 84.2353 90.0449 92.6236 102.736 96.1698V77.2862C102.736 77.2862 91.724 73.6027 91.552 63.604Z" fill="#008A3D"/>
</g>
</svg>
